# xmcd
#
# Track frame offsets: 
#        150
#        8835
#        19897
#        35415
#        49455
#        63067
#        77340
#        90102
#        102727
#        115312
#        128850
#        140827
#        152700
#        166909
#        179992
#        193612
#        207240
#        218442
#        231172
#        242450
#        255042
#        268430
#        279387
#        293542
#
# Disc length: 4108 seconds
#
# Revision: 7
# Processed by: cddbd v1.5.2PL0 Copyright (c) Steve Scherf et al.
# Submitted via: ExactAudioCopyFreeDBPlugin 1.0
#
DISCID=4e100a18
DTITLE=The Mills Brothers - The Anthology 1931-1968
DYEAR=1995
DGENRE=Rhythm and Blues
TTITLE0=Tiger Rag
TTITLE1=Nobody's Sweetheart Now
TTITLE2=Rockin' Chair
TTITLE3=Dedicated to You (with Ella Fitzgerald)
TTITLE4=Flat Foot Floogie (with Louis Armstrong)
TTITLE5=You Tell Me Your Dream, I'll Tell You Mine
TTITLE6=Cherry (with Louis Armstrong)
TTITLE7=(I Yi, Yi, Yi) Wish Me Luck Amigo
TTITLE8=Lazy River
TTITLE9=I'll Be Around
TTITLE10=Paper Doll
TTITLE11=Till Then
TTITLE12=You Always Hurt the One You Love
TTITLE13=I Wish
TTITLE14=Don't Be A Baby, Baby
TTITLE15=I Don't Know Enough About You
TTITLE16=I Guess I'll Get the Papers And Go Home
TTITLE17=Too Many Irons in the Fire
TTITLE18=Across the Alley from the Alamo
TTITLE19=You Never Miss the Water Til The Well Runs Dry
TTITLE20=Gloria
TTITLE21=Is It True What They Say About Dixie? (with Al Jolson)
TTITLE22=I Love You So Much It Hurts
TTITLE23=I've Got My Love to Keep Me Warm
EXTD=
EXTT0=
EXTT1=
EXTT2=
EXTT3=
EXTT4=
EXTT5=
EXTT6=
EXTT7=
EXTT8=
EXTT9=
EXTT10=
EXTT11=
EXTT12=
EXTT13=
EXTT14=
EXTT15=
EXTT16=
EXTT17=
EXTT18=
EXTT19=
EXTT20=
EXTT21=
EXTT22=
EXTT23=
PLAYORDER=
